<svg width="36" height="36" viewBox="0 0 36 36" fill="none" xmlns="http://www.w3.org/2000/svg">
<g clip-path="url(#clip0_1_2)">
<path d="M28.1306 14.3636C28.0475 13.6619 27.7105 13.1172 27.1196 12.7294C26.5287 12.3416 25.8039 12.1477 24.9453 12.1477C24.3174 12.1477 23.7681 12.2493 23.2972 12.4524C22.8309 12.6555 22.4662 12.9348 22.2031 13.2903C21.9446 13.6458 21.8153 14.0497 21.8153 14.5021C21.8153 14.8807 21.9053 15.2062 22.0854 15.4785C22.27 15.7463 22.5055 15.9702 22.7917 16.1502C23.0779 16.3256 23.378 16.4711 23.6919 16.5865C24.0058 16.6973 24.2943 16.7873 24.5575 16.8565L25.9978 17.2443C26.3671 17.3413 26.778 17.4752 27.2304 17.646C27.6875 17.8168 28.1237 18.0499 28.5392 18.3454C28.9593 18.6362 29.3055 19.0101 29.5779 19.4672C29.8503 19.9242 29.9865 20.4851 29.9865 21.1499C29.9865 21.9162 29.7856 22.6087 29.384 23.2273C28.987 23.8459 28.4053 24.3375 27.639 24.7022C26.8773 25.0669 25.9517 25.2493 24.8622 25.2493C23.8465 25.2493 22.9671 25.0854 22.2239 24.7576C21.4852 24.4299 20.9035 23.9728 20.4788 23.3866C20.0587 22.8003 19.821 22.1193 19.7656 21.3438H21.5383C21.5845 21.8793 21.7645 22.3225 22.0784 22.6733C22.397 23.0195 22.7986 23.2781 23.2833 23.4489C23.7727 23.6151 24.299 23.6982 24.8622 23.6982C25.5177 23.6982 26.1063 23.592 26.628 23.3796C27.1496 23.1627 27.5628 22.8626 27.8675 22.4794C28.1722 22.0916 28.3245 21.6392 28.3245 21.1222C28.3245 20.6513 28.193 20.2681 27.9298 19.9727C27.6667 19.6772 27.3204 19.4372 26.8911 19.2525C26.4618 19.0678 25.9978 18.9063 25.4992 18.7678L23.7542 18.2692C22.6463 17.9506 21.7691 17.4959 21.1228 16.905C20.4765 16.3141 20.1534 15.5408 20.1534 14.5852C20.1534 13.7912 20.368 13.0987 20.7974 12.5078C21.2313 11.9123 21.813 11.4506 22.5424 11.1229C23.2764 10.7905 24.0958 10.6243 25.0007 10.6243C25.9147 10.6243 26.7272 10.7882 27.4382 11.116C28.1491 11.4391 28.7123 11.8823 29.1278 12.4455C29.5479 13.0087 29.7695 13.6481 29.7926 14.3636H28.1306Z" fill="black"/>
<path d="M6.71733 25V10.8182H11.6754C12.6634 10.8182 13.4782 10.989 14.1199 11.3306C14.7615 11.6676 15.2393 12.1223 15.5533 12.6948C15.8672 13.2626 16.0241 13.8927 16.0241 14.5852C16.0241 15.1946 15.9157 15.6978 15.6987 16.0948C15.4863 16.4918 15.2047 16.8057 14.8539 17.0366C14.5076 17.2674 14.1314 17.4382 13.7251 17.549V17.6875C14.1591 17.7152 14.5953 17.8675 15.0339 18.1445C15.4725 18.4215 15.8395 18.8185 16.1349 19.3356C16.4304 19.8526 16.5781 20.4851 16.5781 21.2329C16.5781 21.9439 16.4165 22.5833 16.0934 23.1511C15.7702 23.7189 15.2601 24.169 14.563 24.5014C13.8659 24.8338 12.9588 25 11.8416 25H6.71733ZM8.43466 23.4766H11.8416C12.9634 23.4766 13.7598 23.2596 14.2306 22.8256C14.7061 22.3871 14.9439 21.8562 14.9439 21.2329C14.9439 20.7528 14.8216 20.3097 14.5769 19.9034C14.3322 19.4925 13.9837 19.1648 13.5313 18.9201C13.0788 18.6708 12.5433 18.5462 11.9247 18.5462H8.43466V23.4766ZM8.43466 17.0504H11.62C12.1371 17.0504 12.6033 16.9489 13.0188 16.7457C13.4389 16.5426 13.7713 16.2564 14.016 15.8871C14.2653 15.5178 14.3899 15.0838 14.3899 14.5852C14.3899 13.962 14.1729 13.4334 13.739 12.9995C13.305 12.5609 12.6172 12.3416 11.6754 12.3416H8.43466V17.0504Z" fill="black"/>
<path d="M35 35H1V1H35V23.5" stroke="black"/>
</g>
<defs>
<clipPath id="clip0_1_2">
<rect width="36" height="36" fill="white"/>
</clipPath>
</defs>
</svg>
